/* XPM */
static char * bubbles0_xpm[] = {
"64 64 17 1",
" 	c None",
".	c #FFFFFF",
"+	c #FFFFFF",
"@	c #FFFFFF",
"#	c #FFFFFF",
"$	c #FFFFFF",
"%	c #FFFFFF",
"&	c #FFFFFF",
"*	c #FFFFFF",
"=	c #FFFFFF",
"-	c #FFFFFF",
";	c #FFFFFF",
">	c #FFFFFF",
",	c #FFFFFF",
"'	c #FFFFFF",
")	c #000000",
"!	c #FFFFFF",
"                                                                ",
"                                                                ",
"                                                                ",
"                                                                ",
"                                                                ",
"                                                                ",
"                                                                ",
"                                                                ",
"                                                                ",
"                                                                ",
"                                                                ",
"                                                                ",
"                                                                ",
"                                                                ",
"                                                                ",
"                                                                ",
"                                                                ",
"                                                                ",
"                                                                ",
"                                                                ",
"                                                  ......        ",
"                                                ..........      ",
"                                              ..............    ",
"                           ...               ................   ",
"                        .........           ....         .....  ",
"      ....             ...........         ....           ....  ",
"    ........          ...       ...        ...             .... ",
"   ..........        ...         ...      ....              ... ",
"   ....  ....        ..           ..      ...               ....",
"  ...     ....      ...           ..      ...                ...",
"  ...      ...      ..            ...     ...                ...",
"  ...      ...      ..             ..     ...                ...",
"  ...      ...      ..            ...     ...                ...",
"   ...    ...       ...           ...     ...               ....",
"   ..........        ..           ..      ...               ... ",
"    ........         ...         ...       ...              ... ",
"      ....            ...       ...        ....            .... ",
"                       ....   ....          ....          ....  ",
"                        .........           .....       .....   ",
"                          .....              ...............    ",
"                                               ............     ",
"                                                .........       ",
"                                                                ",
"                                                                ",
"                                                                ",
"                                                                ",
"                                                                ",
"                                                                ",
"                                                                ",
"                                                                ",
"                                                                ",
"                                                                ",
"                                                                ",
"                                                                ",
"                                                                ",
"                                                                ",
"                                                                ",
"                                                                ",
"                                                                ",
"                                                                ",
"                                                                ",
"                                                                ",
"                                                                ",
"                                                                "};
