/* XPM */
static char * seaweed_green_a_outline_xpm[] = {
"64 64 63 1",
" 	c #AADDEE",
".	c #004100",
"+	c #1A7D43",
"@	c #1A7E44",
"#	c #117744",
"$	c #197E43",
"%	c #1B7D44",
"&	c #1A7E44",
"*	c #197B42",
"=	c #1A7E43",
"-	c #1B7E43",
";	c #1A7D43",
">	c #1B7D41",
",	c #1B7E43",
"'	c #1A7E44",
")	c #187D45",
"!	c #1B7D44",
"~	c #000000",
"{	c #209350",
"]	c #27B262",
"^	c #1B8145",
"/	c #1E8D4C",
"(	c #27AF60",
"_	c #25AF60",
":	c #1E8B4B",
"<	c #29BD67",
"[	c #29BB67",
"}	c #239F57",
"|	c #24A65B",
"1	c #2ABE68",
"2	c #2BC16A",
"3	c #29B865",
"4	c #209450",
"5	c #229D55",
"6	c #28B865",
"7	c #25AB5E",
"8	c #25AB5D",
"9	c #28B564",
"0	c #24A55A",
"a	c #1C8447",
"b	c #2BC46C",
"c	c #27B161",
"d	c #2BC36B",
"e	c #2ABD68",
"f	c #25A85C",
"g	c #28B764",
"h	c #1C8246",
"i	c #24A258",
"j	c #23A258",
"k	c #219652",
"l	c #219953",
"m	c #27B462",
"n	c #229C55",
"o	c #28B463",
"p	c #2AC16A",
"q	c #1C8749",
"r	c #2AC069",
"s	c #1E8A4B",
"t	c #29BA66",
"u	c #1F904E",
"v	c #1B7E44",
"w	c #27AE60",
"x	c #2CC66D",
"                                                                ",
"                                                                ",
"                                                                ",
"                                                                ",
"                                                                ",
"                                                                ",
"                                                                ",
"                               u5]8^                            ",
"                              j__<xpq                           ",
"                             l___9xx_                           ",
"                             |____xxp^                          ",
"                             _____pxxl                          ",
"                             |____[xx_                          ",
"                             5____9xxp                          ",
"                             /____]xxxu                         ",
"              quuq            7____bxxj                         ",
"            ^mxxxxl           5____pxx_                         ",
"            |xxxx<_/          /____<xx6                         ",
"           ^pxxxx6_5           ____[xxx                         ",
"           5xxxxb__7           |___[xxxq                        ",
"           6xxxx<__|           5___9xxxu                        ",
"          qxxxxx]__u           4___mxxxu                        ",
"          5xxxxp__7            :___mxxxu                        ",
"          _xxxx6__5            q___mxxxu                        ",
"          <xxxx___/             ___mxxxu    4jj|l               ",
"          xxxx<__7              ___6xxxu   5___[x8              ",
"         uxxxx6__5              ___[xxx:  q____bxx:             ",
"         uxxxxm__4              ___<xxx   5___6xxxj             ",
"         uxxxx___:              ___pxxp   ____<xxx5             ",
"         uxxxb___^              ___bxxm  4____xxxxq             ",
"         uxxxp___              ^__]xxxj  5___6xxxm              ",
"         uxxxp___              :__6xxxu  ____<xxx4              ",
"         qxxxp___              u__<xxp  :____bxxp               ",
"          pxxp___              4__xxx8  4____xxx8               ",
"          mxxp___              j_6xxx4  5___mxxx4               ",
"          jxxp___^             __pxx<   j___9xxx^               ",
"          :xxb___:            :_9xxx5   j___[xx<                ",
"           6xx___4            l_pxxp^   j___[xxm                ",
"           lxx9__5            |]xxx8    j___[xx|                ",
"           ^px<__7           q_<xxx4    j___[xxj                ",
"            5xp___:          l_bxxx     j___[xxj                ",
"             px]__5          7]xxx_     4___[xxj                ",
"             |x<__7         u_[xxxj     u___mxxj                ",
"             :xb___u        |_pxxxu     ^___mxxj                ",
"              <x6__|       ^__xxxxq      |___xxm                ",
"              8xb___u      4_]xxxx       5___px6                ",
"              lxx6__|      5_mxxxp       q___<xx                ",
"              uxxp___q     __6xxxm        |__9xxu               ",
"               xxx]__l    :__[xxxm        u___bx|               ",
"               xxx6__|    4__[xxxm         j__<x<               ",
"               xxxp___^   5__[xxxm         u__mxx:              ",
"               xxxx___u   |__[xxxm          |__bx8              ",
"               xxxxm__5   ___[xxxx          l__6xp^             ",
"               xxxx[__j  ^___[xxxx          /___bxj             ",
"               xxxx<___  :___mxxxxu          ___<xp^            ",
"              uxxxxp___  :___mxxxx4          |__9xxl            ",
"              lxxxxb___: :____xxxx|          5___bx6            ",
"              |xxxxx___: :____pxxxm          4___<xxq           ",
"              <xxxxx___: :____<xxxx          4___6xx5           ",
"             qxxxxxx___: :____6xxxx4         4___]xx_           ",
"             5xxxxxx___: :____]xxxx8         4____xxx           ",
"             6xxxxxb___^ q_____pxxxp^        4____pxx:          ",
"            uxxxxxxp___   _____[xxxxl        4____<xx4          ",
"            mxxxxxx<__|   |____]xxxx6        5____[xxj          "};
