/* XPM */
static char * enemy3_xpm[] = {
"64 64 9 1",
" 	c #AADDEE",
".	c #EBCFDA",
"+	c #FEBBD5",
"@	c #4C1B1C",
"#	c #C9839E",
"$	c #772E31",
"%	c #008CDB",
"&	c #00436D",
"*	c #000000",
"                                                                ",
"                                                                ",
"                               ..                               ",
"                              ....                              ",
"                             ......                             ",
"                            ...+@...                            ",
"                           ...+#++...                           ",
"                       ......++++++......                       ",
"                     .....#.++##+#++.......                     ",
"                    .......+++#@#++#+.......                    ",
"                  ...+.++@#++#+##+##@#+++.+...                  ",
"                 ...+++++++++@+##+#+++++++++...                 ",
"                 .+++++++#+++####@#+#+++++++++.                 ",
"                .+++..++++#+##+@#+#+#+++++..+++.                ",
"                 ++...++++++++##++#++++#++...++                 ",
"                    ..+@+++#+#+#@#@#++++++..                    ",
"                     .+#+#++#+$##@+#++++++.                     ",
"                     .++++#+#+#####@#+++++.                     ",
"                      ++++++#@+@+@#+#+++++                      ",
"                      +++#+@+#####+##+#+++                %%    ",
"                       +++++##@+@+##+@+++                &%.%   ",
"                       #++++#####+@++++++                &&%%   ",
"                       ++#++#+#@####++++#                 &&    ",
"                       ++++++@#+#@#++++++                       ",
"                       @++++##+#+##++#+++                       ",
"                       +++++#@###+@++++++                       ",
"           .   %.      +#+++++####+++++#+             ....      ",
"          .    &%      ++++++##@+#+++++++           ..+   .     ",
"         .+            .+++#+++###++#@++.          .+           ",
"         +             .+++@+.###..+++++.         .+            ",
"        .+              .++..........++.         .+         %.  ",
"        +                 .....#...#..          .+          &%  ",
"        +                 ..#++++++...         .+     .         ",
"        +                ..++++#+++++..       .+       .        ",
"        +.               .+++++++#+++@.       ++       +.       ",
"   %%   ++               .++++@++++#++.      .+         +       ",
"  &%.%  ++.             **+#+#++++++++**     ++         +       ",
"  &&%%   ++.            **++++++++#+++**     +#         +       ",
"   &&     ++             ++#++#+++++#@+     .+          +       ",
"          ++..          .++@++@#+@+@++      ++         .+       ",
"           +++.       ..++++#++#@#+++      #+          ++       ",
"             .......#.#++#+++@#++@+#+     .++         .+        ",
"         ....++++++++++++++++++@++#++.   .+#         .++        ",
"       ..+++      +#++++#.++++.+++++++#..++         .++         ",
"      .++                +#+ #+  +++++++..       ...+           ",
"     .+                  ++  ++ #++++.++++...  #.+++            ",
"    .+                  .++  +# +++++#  +++++..+++    ..        ",
"    +     .....         +#   ++.++++++     +#.++   ...++.       ",
"   .+    .+++++..     .#++    ++++# ++.       .  ..++++++.      ",
"   +    .++    ++.....+++     +#+++  #+.#     ..#+++    ++.     ",
"   +   .++       ++++++       ++++     ++.....++++       ++     ",
"    .  ++                    .++#+        #+++++          +.    ",
"      .+         .           #++++           .+            +    ",
"      ++     %  .           .++ ++           ++            +    ",
"      +         +          .++  ++.          ++            +    ",
"      +          ..       .++    ++#        .++  ##        +    ",
"      +           +...  ..++      ++.      .++  #..##     .+    ",
"      +.#           ++..++         ++...  .++    ++..#   .+     ",
"       +.##                          +#+..++       ++....+      ",
"       ++..#                                                    ",
"        +++.##                                                  ",
"          ++.                                                   ",
"                                                                ",
"                                                                "};
