/* XPM */
static char * terrain_dirt_top_c_xpm[] = {
"64 64 47 1",
" 	c #AADDEE",
".	c #D6904B",
"+	c #D6904A",
"@	c #D6944A",
"#	c #D6904A",
"$	c #D7914B",
"%	c #D7904B",
"&	c #D79249",
"*	c #D7914A",
"=	c #000000",
"-	c #D48F4A",
";	c #D18D49",
">	c #C58647",
",	c #C78847",
"'	c #CF8C49",
")	c #C68747",
"!	c #C38445",
"~	c #CA8947",
"{	c #D58F4A",
"]	c #C88849",
"^	c #CC8A49",
"/	c #D38E4A",
"(	c #C98949",
"_	c #D5904A",
":	c #CD8B49",
"<	c #D08C49",
"[	c #C58546",
"}	c #CE8C49",
"|	c #C18345",
"1	c #C28345",
"2	c #BD8044",
"3	c #BD8144",
"4	c #BF8245",
"5	c #C18446",
"6	c #BE8244",
"7	c #C98847",
"8	c #C08245",
"9	c #C28546",
"0	c #C08345",
"a	c #BC8043",
"b	c #C28446",
"c	c #BC7F43",
"d	c #BE8144",
"e	c #C38546",
"f	c #D7914B",
"g	c #C48647",
"h	c #BB7F43",
"                                                                ",
"                                                                ",
"                                                                ",
"                                      ;:~[!aaaaaaaaa|~~:'-      ",
"                                  -~[aaaaaaaaaaaaaaa!>>>>>)~'_  ",
"                                [!aaaaaaaaaaaaaaaaa!>>>>>>>>>>,}",
">~'+                        +~!aaaaaaaaaaaaaaaaaaa6>>>>>>>>>>>>>",
">>>>,};+                 ~~aaaaaaaaaaaaaaaaaaaaaaa!>>>>>>>>>>>>>",
">>>>>>>aa!!!~~~~~~~~!!aaaaaaaaaaaaaaaaaaaaaaaaaaa!>>>>>>>>>>>>>>",
">>>>>>!aaaaaaaaaaaaaaaaaaaaaaaaaaaaaaaaaaaaaaaaa|>>>>>>>>>>>>>>>",
">>>>>>|aaaaaaaaaaaaaaaaaaaaaaaaaaaaaaaaaaaaaaaa6>>>>>>>>>>>>>>>>",
">>>>>>aaaaaaaaaaaaaaaaaaaaaaaaaaaaaaaaaaaaaaaa6!>>>>>>>>>>>>>>>>",
">>>>>!aaaaaaaaaaaaaaaaaaaaaaaaaaaaaaaaaaaaaaaa!>>>>>>>>>>>>>>>>>",
">>>>>0aaaaaaaaaaaaaaaaaaaaaaaaaaaaaaaaaaaaaad!>>>>>>>>>>>>>>>>>>",
">>>>>aaaaaaaaaaaaaaaaaaaaaaaaaaaaaaaaaaaaaa6>>>>>>>>>>>>>>>>>>>>",
">>>>|aaaaaaaaaaaaaaaaaaaaaaaaaaaaaaaaaaaaa0>>>>>>>>>>>>>>>>>>>>>",
">>>>aaaaaaaaaaaaaaaaaaaaaaaaaaaaaaaaaaaaa!>>>>>>>>>>>>>>>>>>>>>>",
">>>|aaaaaaaaaaaaaaaaaaaaaaaaaaaaaaaaaaad!>>>>>>6|>>>>>>>>>>>>>>>",
">>>aaaaaaaaaaaaaaaaaaaaaaaaaaaaaaaaaaa|>>>>>>>!aaa6!>>>>>>>>>>>>",
">>0aaaaaaaaaaaaaaaaaaaaaaaaaaaaaaaaa6!>>>>>>>>6aaaaa!>>>>>>>>>>>",
">!aaaaaaaaaaaaaaaaaaaaaaaaaaaaaaaa6!>>>>>>>>>!aaaaaa>>>>>>>>>>>>",
">daaaaaaaaaaaaaaaaaaaaaaaaaaaaaa6!>>>>>>>>>>>|aaaaa|>>>>>>>>>>>>",
"|aaaaaaaaaaaaaaaaaaaaaaaaaaaaa6!>>>>>>>>>>>>>|aaaaa!>>>>>>>>>>>>",
"aaaaaaaaaaaaaaaaaaaaaaaaaaa6!>>>>>>>>>>>>>>>>>>!6aa>>>>>>>>>>>>!",
"aaaaaaaaaaaaaaaaaaaaaaaa6|!>>>>>>>>>>>>>>>>>>>>>>!!>>>>>>>>>>>!a",
"aaaaaaaaaaaaaaaaaaaaa0!>>>>>>>>>>>>>>>>>>>>>>>>>>>>>>>>>>>>>>>da",
"aaaaaaaaaaaaaaaaaa6!>>>>>>>>>>>>>>>>>>>>>>>>>>>>>>>>>>>>>>>>>6aa",
"aaaaaaaaaaaaaaaa0!>>>>>>>>>>>>>>>>>>>>>>>>>>>>>>>>>>>>>>>>>>6aaa",
"aaaaaaaaaaaaaa|>>>>>>>>>>>>>>>>>>>>>>>>>>>>>>>>>>>>>>>>>>>>6aaaa",
"aaaaaaaaaaaa0!>>>>>>>>>>>>>>>>>>>>>>>>>>>>>>>>>>>>>>>>>>>!daaaaa",
"aaaaaaaaaaa!>>>>>>>>>>>>>>>>>>>>>>>>>>>>>>>>>>>>>>>>>>>>!aaaaaaa",
"aaaaaaaaa6>>>>>>>>>>>>>>>>>>>>>>>>>>>>>>>>>>>>>>>>>>>>>|aaaaaaaa",
"aaaaaaaa!>>>>>>>>>>>>>>>>>>>>>>>>>>>>>>>>>>>>>>>>>>>>!6aaaaaaaaa",
"aaaaaaa!>>>>>>>>>>>>>>>>>>>>>>>>>>>>>>>>>>>>>>>>>>>>!aaaaaaaaaaa",
"aaaaaa!>>>>>>>>>>>>>>>>>>>>>>>>>>>>>>>>>>>>>>>>>>>!aaaaaaaaaaaaa",
"aaaaa>>>>>>>>>>>>>>>>>>>>>>>>>>>>>>>>>>>>>>>>>>>!6aaaaaaaaaaaaaa",
"aaaa!>>>>>>>>>>>>>>>>>>>>>>>>>>>>>>>>>>>>>>>>>!6aaaaaaaaaaaaaaaa",
"aaa!>>>>>>>>>>>>>>>>>>>>>>>>>>>>>>>>>>>>>>>>|daaaaaaaaaaaaaaaaaa",
"aa!>>>>>>>>>>>>>>>>>>>>>>>>>>>>>>>>>>>>>>!6aaaaaaaaaaaaaaaaaaaaa",
"a!>>>>>>>>>>>>>>>>>>>>>>>>>>>>>>>>>>>!|6aaaaaaaaaaaaaaaaaaaaaaaa",
"|>>>>>>>>>>>>>>>>>>>>>>>>>>>>>>>>>!|aaaaaaaaaaaaaaaaaaaaaaaaaaaa",
">>>>>>>>>>>>>>>>>>>>>>>>>>>>>>>>|aaaaaaaaaaaaaaaaaaaaaaaaaaaaaaa",
">>>>>>>>>>>>>>>>>>>>>>>>>>>>>!0aaaaaaaaaaaaaaaaaaaaaaaaaaaaaaaa!",
">>>>>>>>>>>>>>>>>>>>>>>>>>>>|aaaaaaaaaaaaaaaaaaaaaaaaaaaaaaaaa6>",
">>>>>>>>>>>>>>>>>>>>>>>>>>!aaaaaaaaaaaaaaaaaaaaaaaaaaaaaaaaaaa!>",
">>>>>>>>>>>>|!>>>>>>>>>>!6aaaaaaaaaaaaaaaaaaaaaaaaaaaaaaaaaaa|>>",
">>>>>>>>>!6aa6>>>>>>>>>!aaaaaaaaaaaaaaaaaaaaaaaaaaaaaaaaaaaaa>>>",
">>>>>>>>|aaaaa>>>>>>>>|aaaaaaaaaaaaaaaaaaaaaaaaaaaaaaaaaaaaa|>>>",
">>>>>>>>>aaaaa!>>>>>>6aaaaaaaaaaaaaaaaaaaaaaaaaaaaaaaaaaaaaa>>>>",
">>>>>>>>>6aaaa6>>>>>6aaaaaaaaaaaaaaaaaaaaaaaaaaaaaaaaaaaaaa|>>>>",
">>>>>>>>>!aaa6!>>>>6aaaaaaaaaaaaaaaaaaaaaaaaaaaaaaaaaaaaaaa>>>>>",
">>>>>>>>>>|!>>>>>>6aaaaaaaaaaaaaaaaaaaaaaaaaaaaaaaaaaaaaaa6>>>>>",
">>>>>>>>>>>>>>>>>6aaaaaaaaaaaaaaaaaaaaaaaaaaaaaaaaaaaaaaaa!>>>>>",
">>>>>>>>>>>>>>>>|aaaaaaaaaaaaaaaaaaaaaaaaaaaaaaaaaaaaaaaaa>>>>>>",
">>>>>>>>>>>>>>>!aaaaaaaaaaaaaaaaaaaaaaaaaaaaaaaaaaaaaaaaa|>>>>>>",
">>>>>>>>>>>>>>!aaaaaaaaaaaaaaaaaaaaaaaaaaaaaaaaaaaaaaaaaa!>>>>>>",
">>>>>>>>>>>>>>6aaaaaaaaaaaaaaaaaaaaaaaaaaaaaaaaaaaaaaaaad>>>>>>>",
">>>>>>>>>>>>>!aaaaaaaaaaaaaaaaaaaaaaaaaaaaaaaaaaaaaaaaaa0>>>>>>>",
">>>>>>>>>>>>!aaaaaaaaaaaaaaaaaaaaaaaaaaaaaaaaaaaaaaaaaaa!>>>>>>>",
">>>>>>>>>>>>0aaaaaaaaaaaaaaaaaaaaaaaaaaaaaaaaaaaaaaaaaaa>>>>>>>>",
">>>>>>>>>>>!aaaaaaaaaaaaaaaaaaaaaaaaaaaaaaaaaaaaaaaaaaa6>>>>>>>>",
">>>>>>>>>>>6aaaaaaaaaaaaaaaaaaaaaaaaaaaaaaaaaaaaaaaaaaa!>>>>>>>>",
">>>>>>>>>>!aaaaaaaaaaaaaaaaaaaaaaaaaaaaaaaaaaaaaaaaaaaa>>>>>>>>>",
">>>>>>>>>>6aaaaaaaaaaaaaaaaaaaaaaaaaaaaaaaaaaaaaaaaaaa0>>>>>>>>>"};
