/* XPM */
static char * terrain_sand_top_a_outline_xpm[] = {
"64 64 43 1",
" 	c #AADDEE",
".	c #CEC39D",
"+	c #CBC19C",
"@	c #CBC29B",
"#	c #CCCC99",
"$	c #CBC29C",
"%	c #CAC19C",
"&	c #CEC59C",
"*	c #CAC29C",
"=	c #CAC29E",
"-	c #CCC19C",
";	c #CBC39D",
">	c #CBC29C",
",	c #000000",
"'	c #F1E7BA",
")	c #F0E6B9",
"!	c #F3E9BA",
"~	c #F0E6B8",
"{	c #D8CFA6",
"]	c #F4EABB",
"^	c #F5EBBC",
"/	c #E3DAAF",
"(	c #F3E9BB",
"_	c #F5EBBD",
":	c #E1D7AD",
"<	c #D0C7A0",
"[	c #D6CCA4",
"}	c #F2E8BA",
"|	c #EFE5B7",
"1	c #E6DCB1",
"2	c #F1E7B9",
"3	c #DBD2A8",
"4	c #F6ECBD",
"5	c #EBE1B4",
"6	c #ECE2B6",
"7	c #EBE1B5",
"8	c #ECE2B5",
"9	c #EAE0B4",
"0	c #EDE3B6",
"a	c #CBC29C",
"b	c #F7EDBE",
"c	c #EEE4B7",
"d	c #E9DFB3",
"                                                                ",
"                                                                ",
"                                        <{:/000bb001::[<        ",
"                                     {1'bbbbbbbbbbbbbbbb'/{     ",
"                                  [/^bbbbbbbbbb]]bbbbbbbbbb^/<  ",
"                                30bbbbbbb(~099999990']_bbbbbbb9[",
"13                            31bbbbbb]|99999999998|||||'_bbbbbb",
"bb'3                        3'bbbbbb'7999999999999c|||||||'_bbbb",
"bbbbb13                  31bbbbbbb(69999999999999c||||||||||)_bb",
"bbbbbbbb0:[<        <[:0bbbbbbbbb~999999999999990|||||||||||||(b",
"_bbbbbbbbbbbbbbbbbbbbbbbbbbbbbbb9999999999999997|||||||||||||||~",
"|]bbbbbbbbbbbbbbbbbbbbbbbbbbbb~9999999999999997|||||||||||||||||",
"||)_bbbbbbbbbbbbbbbbbbbbbbbb^69999999999999997||||||||||||||||||",
"||||(bbbbbbbbbbbbbbbbbbbbb_|99999999999999997c||||||||cc||||||||",
"||||c9|'bbbbbbbbbbbbbbbb(|999999999999999997|||||||||c99c|||||||",
"||||09999~'bbbbbbbbbb]|69999999999999999990|||||||||c99990||||||",
"||||99999999900000069999999999999999999990|||||||||c9999990|||||",
"|||0999999999999999999999999999999999997c||||||||||69999997|||||",
"|||999999999999999999999999999999999990|||||||||||||799997||||||",
"||69999999999999999999999999999999996c|||||||||||||||6999|||||||",
"|c999999999999999999999999999999997c||||||||||||||||||09c|||||||",
"|79999999999999999999999999999997c||||||||||||||||||||||||||||||",
"6999999999999999999999999999996c||||||||||||||||||||||||||||||||",
"99999999999999999999999999970||||||||||||||||||||||||||||||||||c",
"99999999999999999999999970c|||||||||||||||||||||||||||||||||||c9",
"99999999999999999999960|||||||||||||||||||||||c97c||||||||||||79",
"9999999999999999997c||||||||||||||||||||||||||099990c||||||||799",
"99999999999999996c||||||||||||||||||||67||||||799999c|||||||7999",
"999999999999996|||||||||||||||||||||c7997||||c999997|||||||79999",
"9999999999996c|||||||||||||||||||||c999990|||6999990|||||c799999",
"99999999999c|||||||||||||||||||||||79999990||c79999c||||c9999999",
"9999999998|||||||||||||||||||||||||c9999990|||||077||||699999999",
"999999990|||||||||||||||||||||||||||09999c|||||||||||c8999999999",
"9999999c|||||||||||||||||||||||||||||099c|||||||||||099999999999",
"999999c|||||||||||||||||||||||||||||||0|||||||||||c9999999999999",
"99999|||c0||||||||||||||||||||||||||||||||||||||c799999999999999",
"9999c||c997c||||||||||||||||||||||||||||||||||c79999999999999999",
"999c|||799990|||||||||||||||||||||||||||||||07999999999999999999",
"99c|||09999990|||||||||||||||||||||||||||07999999999999999999999",
"90|||c9999997||||||||||||||||||||||||c07999999999999999999999999",
"6|||||c99999c|||||||||||||||||||||c69999999999999999999999999999",
"|||||||c7990||||||||||||||||||||09999999999999999999999999999999",
"|||||||||06||||||||||||||||||c6999999999999999999999999999999990",
"||||||||||||||||||||||||||||69999999999999999999999999999999998|",
"||||||||||||||||||||||||||099999999999999999999999999999999999c|",
"||||||||||||0c||||||||||c7999999999999999999999999999999999990||",
"|||||||||07997|||||||||c9999999999999999999999999999999999999|||",
"||||||||099999||||||||099999999999999999999999999999999999990|||",
"|||||||||99999c||||||799999999999999999999999999999999999999||||",
"|||||||||899998|||||7999999999999999999999999999999999999990||||",
"|||||||||c9998c||||7999999999999999999999999999999999999999|||||",
"||||||||||6c||||||79999999999999999999999999999999999999998|||||",
"|||||||||||||||||79999999999999999999999999999999999999999c|||||",
"||||||||||||||||099999999999999999999999999999999999999999||||||",
"|||||||||||||||c999999999999999999999999999999999999999996||||||",
"||||||||||||||c999999999999999999999999999999999999999999c||||||",
"||||||||||||||7999999999999999999999999999999999999999997|||||||",
"|||||||||||||09999999999999999999999999999999999999999996|||||||",
"||||||||||||c9999999999999999999999999999999999999999999c|||||||",
"||||||||||||69999999999999999999999999999999999999999999||||||||",
"|||||||||||c99999999999999999999999999999999999999999998||||||||",
"|||||||||||89999999999999999999999999999999999999999999c||||||||",
"|||||||||||99999999999999999999999999999999999999999999|||||||||",
"||||||||||699999999999999999999999999999999999999999996|||||||||"};
