/* XPM */
static char * wall_xpm[] = {
"64 64 8 1",
" 	c #ECE2B6",
".	c #EBE1B4",
"+	c #EBE1B5",
"@	c #ECE2B5",
"#	c #EAE0B4",
"$	c #EDE3B6",
"%	c #EEE4B7",
"&	c #E9DFB3",
"%%%%%%%%%%&&&&&&&&&&&&&&&&&&&&&&&&&&&&&&&&&&&&&&#&&&&&$%%%%%%%%%",
"%%%%%%%%%@&&&&&&&&&&&&&&&&&&&&&&&&&&&&&&&&&&&&&&&&&&&#%%%%%%%%%%",
"%%%%%%%%%#&&&&&&&&&&&&&&&&&&&&&&&&&&&&&&&&&&&&&&&&&&&$%%%%%%%%%%",
"%%%%%%%%$&&&&&&&&&&&&&&&&&&&&&&&&&&&&&&&&&&&&&&&&&&&+%%%%%%%%%%%",
"%%%%%%%%@&&&&&&&&&&&&&&&&&&&&&&&&&&&&&&&&&&&&&&&&&&&$%%%%%%%%%%%",
"%%%%%%%%&&&&&&&&&&&&&&&&&&&&&&&&&&&&&&&&&&&&&&&&&&&@%%%%%%%%%%%%",
"%%%%%%%$&&&&&&&&&&&&&&&&&&&&&&&&&&&&&&&&&&&&&&&&&&#%%%%%%%%%%%%%",
"%%%%%%%.&&&&&&&&&&&&&&&&&&&&&&&&&&&&&&&&&&&&&&&&&&$%%%%%%%%%%%%%",
"%%%%%%%&&&&&&&&&&&&&&&&&&&&&&&&&&&&&&&&&&&&&&&&&& %%%%%%%%%%%%%%",
"%%%%%%$&&&&&&&&&&&&&&&&&&&&&&&&&&&&&&&&&&&&&&&&&+%%%%%%%%%%%%%%%",
"%%%%%%+&&&&&&&&&&&&&&&&&&&&&&&&&&&&&&&&&&&&&&&&#%%%%%%%%%%%%%%%%",
"%%%%%%&&&&&&&&&&&&&&&&&&&&&&&&&&&&&&&&&&&&&&&&#$%%%%%%%%%%%%%%%%",
"%%%%%$&&&&&&&&&&&&&&&&&&&&&&&&&&&&&&&&&&&&&&&&$%%%%%%%%%%%%%%%%%",
"%%%%%.&&&&&&&&&&&&&&&&&&&&&&&&&&&&&&&&&&&&&&#$%%%%%%%%$$%%%%%%%%",
"%%%%$&&&&&&&&&&&&&&&&&&&&&&&&&&&&&&&&&&&&&&#%%%%%%%%%$&&$%%%%%%%",
"%%%%@&&&&&&&&&&&&&&&&&&&&&&&&&&&&&&&&&&&&&+%%%%%%%%%$&&&&@%%%%%%",
"%%%%&&&&&&&&&&&&&&&&&&&&&&&&&&&&&&&&&&&&& %%%%%%%%%$&&&&&&@%%%%%",
"%%%@&&&&&&&&&&&&&&&&&&&&&&&&&&&&&&&&&&&#$%%%%%%%%%%+&&&&&&#%%%%%",
"%%%&&&&&&&&&&&&&&&&&&&&&&&&&&&&&&&&&&&+%%%%%%%%%%%%%#&&&&#%%%%%%",
"%%+&&&&&&&&&&&&&&&&&&&&&&&&&&&&&&&&&#$%%%%%%%%%%%%%%%+&&&%%%%%%%",
"%$&&&&&&&&&&&&&&&&&&&&&&&&&&&&&&&&#$%%%%%%%%%%%%%%%%%%@&$%%%%%%%",
"%#&&&&&&&&&&&&&&&&&&&&&&&&&&&&&&#$%%%%%%%%%%%%%%%%%%%%%%%%%%%%%%",
"+&&&&&&&&&&&&&&&&&&&&&&&&&&&&&.$%%%%%%%%%%%%%%%%%%%%%%%%%%%%%%%%",
"&&&&&&&&&&&&&&&&&&&&&&&&&&&#@%%%%%%%%%%%%%%%%%%%%%%%%%%%%%%%%%%$",
"&&&&&&&&&&&&&&&&&&&&&&&&#@$%%%%%%%%%%%%%%%%%%%%%%%%%%%%%%%%%%%$&",
"&&&&&&&&&&&&&&&&&&&&&+ %%%%%%%%%%%%%%%%%%%%%%%%%%%%%%%%%%%%%%%#&",
"&&&&&&&&&&&&&&&&&&#$%%%%%%%%%%%%%%%%%%%%%%%%%%%%%%%%%%%%%%%%%#&&",
"&&&&&&&&&&&&&&&&+$%%%%%%%%%%%%%%%%%%%%%%%%%%%%%%%%%%%%%%%%%%#&&&",
"&&&&&&&&&&&&&&+%%%%%%%%%%%%%%%%%%%%%%%%%%%%%%%%%%%%%%%%%%%%#&&&&",
"&&&&&&&&&&&&+$%%%%%%%%%%%%%%%%%%%%%%%%%%%%%%%%%%%%%%%%%%%$#&&&&&",
"&&&&&&&&&&&$%%%%%%%%%%%%%%%%%%%%#@%%%%%%%%%%%%%%%%%%%%%%$&&&&&&&",
"&&&&&&&&&.%%%%%%%%%%%%%%%%%%%%%@&&&#$%%%%%%%%%%%%%%%%%%+&&&&&&&&",
"&&&&&&&& %%%%%%%%%%%%%%%%%%%%%%#&&&&&$%%%%%%%%%%%%%%%$.&&&&&&&&&",
"&&&&&&&$%%%%%%%%%%%%%%%%%%%%%%$&&&&&&%%%%%%%%%%%%%%%@&&&&&&&&&&&",
"&&&&&&$%%%%%%%%%%%%%%%%%%%%%%%@&&&&&+%%%%%%%%%%%%%$&&&&&&&&&&&&&",
"&&&&&%%%%%%%%%%%%%%%%%%%%%%%%%@&&&&&$%%%%%%%%%%%$#&&&&&&&&&&&&&&",
"&&&&$%%%%%%%%%%%%%%%%$$%%%%%%%%%$#&&%%%%%%%%%%$#&&&&&&&&&&&&&&&&",
"&&&$%%%%%%%%%%%%%%%$#&&%%%%%%%%%%%$$%%%%%%%%@#&&&&&&&&&&&&&&&&&&",
"&&$%%%%%%%%%%%%%%%#&&&&$%%%%%%%%%%%%%%%%%@#&&&&&&&&&&&&&&&&&&&&&",
"& %%%%%%%%%%%%%%%%#&&&&@%%%%%%%%%%%%%$@#&&&&&&&&&&&&&&&&&&&&&&&&",
"+%%%%%%%%%%%%%%%%%@&&&&#%%%%%%%%%%$+&&&&&&&&&&&&&&&&&&&&&&&&&&&&",
"%%%%%%%%%%%%%%%%%%%&&&&.%%%%%%%%@&&&&&&&&&&&&&&&&&&&&&&&&&&&&&&&",
"%%%%%%%%%%%%%%%%%%%+.$%%%%%%%$+&&&&&&&&&&&&&&&&&&&&&&&&&&&&&&&& ",
"%%%%%%%%%%%%%%%%%%%%%%%%%%%%+&&&&&&&&&&&&&&&&&&&&&&&&&&&&&&&&&.%",
"%%%%%%%%%%%%%%%%%%%%%%%%%% &&&&&&&&&&&&&&&&&&&&&&&&&&&&&&&&&&&$%",
"%%%%%%%%%%%%%%%%%%%%%%%%$#&&&&&&&&&&&&&&&&&&&&&&&&&&&&&&&&&&&@%%",
"%%%%%%%%%%%%%%%%%%%%%%%$&&&&&&&&&&&&&&&&&&&&&&&&&&&&&&&&&&&&&%%%",
"%%%%%%%%%%%%%%%%%%%%%%@&&&&&&&&&&&&&&&&&&&&&&&&&&&&&&&&&&&&&@%%%",
"%%%%%%%%%%%%%%%%%%%%%.&&&&&&&&&&&&&&&&&&&&&&&&&&&&&&&&&&&&&&%%%%",
"%%%%%%%%%%%%%%%%%%%%#&&&&&&&&&&&&&&&&&&&&&&&&&&&&&&&&&&&&&&@%%%%",
"%%%%%%%%+#$%%%%%%%%#&&&&&&&&&&&&&&&&&&&&&&&&&&&&&&&&&&&&&&&%%%%%",
"%%%%%%%$&&&@%%%%%%#&&&&&&&&&&&&&&&&&&&&&&&&&&&&&&&&&&&&&&&.%%%%%",
"%%%%%%$&&&&&.$%%%#&&&&&&&&&&&&&&&&&&&&&&&&&&&&&&&&&&&&&&&&$%%%%%",
"%%%%%%#&&&&&& %%@&&&&&&&&&&&&&&&&&&&&&&&&&&&&&&&&&&&&&&&&&%%%%%%",
"%%%%%$&&&&&&+%%$&&&&&&&&&&&&&&&&&&&&&&&&&&&&&&&&&&&&&&&&&+%%%%%%",
"%%%%%%$#&&&&%%$&&&&&&&&&&&&&&&&&&&&&&&&&&&&&&&&&&&&&&&&&&$%%%%%%",
"%%%%%%%%@&&$%%#&&&&&&&&&&&&&&&&&&&&&&&&&&&&&&&&&&&&&&&&&#%%%%%%%",
"%%%%%%%%%$ %% &&&&&&&&&&&&&&&&&&&&&&&&&&&&&&&&&&&&&&&&&&+%%%%%%%",
"%%%%%%%%%%%%$&&&&&&&&&&&&&&&&&&&&&&&&&&&&&&&&&&&&&&&&&&&$%%%%%%%",
"%%%%%%%%%%%%+&&&&&&&&&&&&&&&&&&&&&&&&&&&&&&&&&&&&&&&&&&&%%%%%%%%",
"%%%%%%%%%%%$&&&&&&&&&&&&&&&&&&&&&&&&&&&&&&&&&&&&&&&&&&&#%%%%%%%%",
"%%%%%%%%%%%.&&&&&&&&&&&&&&&&&&&&&&&&&&&&&&&&&&&&&&&&&&& %%%%%%%%",
"%%%%%%%%%%$&&&&&&&&&&&&&&&&&&&&&&&&&&&&&&&&&&&&&&&&&&&&%%%%%%%%%",
"%%%%%%%%%%.&&&&&&&&&&&&&&&&&&&&&&&&&&&&&&&&&&&&&&&&&&&+%%%%%%%%%"};
