/* XPM */
static char * terrain_dirt_a_xpm[] = {
"64 64 16 1",
" 	c #C18345",
".	c #BD8044",
"+	c #BD8144",
"@	c #C18446",
"#	c #BF8245",
"$	c #C08245",
"%	c #BE8244",
"&	c #BC8043",
"*	c #C08345",
"=	c #C28446",
"-	c #C28546",
";	c #BC7F43",
">	c #BE8144",
",	c #C38546",
"'	c #C48647",
")	c #BB7F43",
"'''''''''';))))))))))&))))))))))))))))))))))))))&)))))-'''''''''",
"''''''''' )))))))))))))))))))))))))))))))))))))))))))>''''''''''",
"'''''''''>))))))))))))))))))))))))))))))))))))))))))),''''''''''",
"'''''''',)))))))))))))))))))))))))))))))))))))))))))#'''''''''''",
"''''''''*))))))))))))))))))))))))))))))))))))))))));,'''''''''''",
"''''''''&)))))))))))))))))))))))))))))))))))))))))) ''''''''''''",
"'''''''-))))))))))))))))))))))))))))))))))))))))))+'''''''''''''",
"'''''''%)))))))))))))))))))))))))))))))))))))))))),'''''''''''''",
"''''''';)))))))))))))))))))))))))))))))))))))))))@''''''''''''''",
"''''''-)))))))))))))))))))))))))))))))))))))))))$'''''''''''''''",
"''''''$))))))))))))))))))))))))))))))))))))))))>''''''''''''''''",
"''''''&)))))))))))))))))))))))))))))))))))))))+,''''''''''''''''",
"'''''-)))))))))))))))))))))))))))))))))))))))&,'''''''''''''''''",
"'''''%)))))))))))))))))))))))))))))))))))))).,''''''''''''''''''",
"'''',))))))))))))))))))))))))))))))))))))))>''''''''''''''''''''",
"''''*)))))))))))))))))))))))))))))))))))))#'''''''''''''''''''''",
"'''';))))))))))))))))))))))))))))))))))))@''''''''''''''''''''''",
"'''*))))))))))))))))))))))))))))))))))).,''''''+*'''''''''''''''",
"''';))))))))))))))))))))))))))))))))))$''''''' )))>-''''''''''''",
"''#)))))))))))))))))))))))))))))))))>,''''''''>)))))-'''''''''''",
"'-))))))))))))))))))))))))))))))))+=''''''''',)))))&''''''''''''",
"'.))))))))))))))))))))))))))))))>='''''''''''*)))))$''''''''''''",
"$))))))))))))))))))))))))))));%-'''''''''''''*;))))-''''''''''''",
")))))))))))))))))))))))))))> ''''''''''''''''''=>)&''''''''''''=",
")))))))))))))))))))))));+*,'''''''''''''''''''''',-''''''''''',;",
"))))))))))))))))))));#@'''''''''''''''''''''''''''''''''''''''.)",
"))))))))))))))))))>='''''''''''''''''''''''''''''''''''''''''>))",
")))))))))))))));#,''''''''''''''''''''''''''''''''''''''''''>)))",
"))))))))))))))$''''''''''''''''''''''''''''''''''''''''''''>))))",
"))))))))))))#,''''''''''''''''''''''''''''''''''''''''''',.)))))",
"))))))))))&=''''''''''''''''''''''''''''''''''''''''''''-&))))))",
")))))))))%'''''''''''''''''''''''''''''''''''''''''''''$))))))))",
"))))))))@'''''''''''''''''''''''''''''''''''''''''''',%)))))))))",
"))))))&-'''''''''''''''''''''''''''''''''''''''''''' ;))))))))))",
")))))&,'''''''''''''''''''''''''''''''''''''''''''=&))))))))))))",
"))))&'''''''''''''''''''''''''''''''''''''''''''-+))))))))))))))",
")))&,'''''''''''''''''''''''''''''''''''''''''=+))))))))))))))))",
"));,''''''''''''''''''''''''''''''''''''''''*.))))))))))))))))))",
"))-'''''''''''''''''''''''''''''''''''''' >)))))))))))))))))))))",
")@'''''''''''''''''''''''''''''''''''-*>))))))))))))))))))))))))",
"$'''''''''''''''''''''''''''''''''=$&)))))))))))))))))))))))))))",
"''''''''''''''''''''''''''''''''*&)))))))))))))))))))))))))))));",
"''''''''''''''''''''''''''''',#;)))))))))))))))))))))))))))))))@",
"''''''''''''''''''''''''''''$)))))))))))))))))))))))))))))))))%'",
"''''''''''''''''''''''''''@;)))))))))))))))))))))))))))))))))),'",
"''''''''''''*='''''''''',>)))))))))))))))))))))))))))))))))))*''",
"'''''''''@>))>'''''''''=;)))))))))))))))))))))))))))))))))));'''",
"''''''''*)))))''''''''*)))))))))))))))))))))))))))))))))))))*'''",
"''''''''')))))=''''''%)))))))))))))))))))))))))))))))))))));''''",
"'''''''''%))))%'''''>))))))))))))))))))))))))))))))))))))))*''''",
"'''''''''=));%=''''+)))))))))))))))))))))))))))))))))))))))'''''",
"''''''''''$=''''''>)))))))))))))))))))))))))))))))))))))))%'''''",
"'''''''''''''''''>))))))))))))))))))))))))))))))))))))))))-'''''",
"''''''''''''''''*))))))))))))))))))))))))))))))))))))))))&''''''",
"'''''''''''''''=)))))))))))))))))))))))))))))))))))))))))$''''''",
"'''''''''''''',)))))))))))))))))))))))))))))))))))))))))),''''''",
"''''''''''''''>))))))))))))))))))))))))))))))))))))))))).'''''''",
"'''''''''''''@))))))))))))))))))))))))))))))))))))))))))#'''''''",
"'''''''''''',;))))))))))))))))))))))))))))))))))))))))))='''''''",
"''''''''''''#))))))))))))))))))))))))))))))))))))))))));''''''''",
"'''''''''''-)))))))))))))))))))))))))))))))))))))))))))>''''''''",
"'''''''''''%)))))))))))))))))))))))))))))))))))))))))))@''''''''",
"''''''''''-)))))))))))))))))))))))))))))))))))))))))));'''''''''",
"''''''''''%)))))))))))))))))))))))))))))))))))))))))))#'''''''''"};
